# Blender v2.78 (sub 0) OBJ File: ''
# www.blender.org
mtllib fired.mtl
o Box010.001_Untitled.012
v -0.089631 -0.313016 0.056481
v -0.067263 -0.386188 0.077448
v -0.127075 -0.195890 0.058070
v -0.091360 -0.319825 0.090208
v -0.081390 -0.310281 0.047658
v -0.064601 -0.384473 0.065052
v -0.096717 -0.240456 0.059322
v -0.073215 -0.315688 0.090142
v -0.126384 -0.186915 0.075931
v -0.117791 -0.129659 0.095972
v -0.110079 -0.127543 0.091738
v -0.095543 -0.231629 0.079959
vt 1.0000 0.0000
vt 0.4149 0.0000
vt 0.4149 1.2900
vt 1.0000 1.2900
vt 0.0000 0.0000
vt 0.0000 1.2900
vt 0.5851 1.2900
vt 0.5851 0.0000
vt 0.0000 0.0000
vt 0.0000 -0.6117
vt 0.5851 -0.6117
vt 0.5851 0.0000
vt 0.0000 0.0000
vt 0.0000 -0.6117
vt 1.2900 -0.6117
vt 1.2900 0.0000
vt 0.0000 0.0000
vt 0.0000 -0.6117
vt 0.5851 -0.6117
vt 0.5851 0.0000
vt 0.0000 0.0000
vt 0.0000 -0.6117
vt 1.2900 -0.6117
vt 1.2900 0.0000
vt 0.0000 0.0000
vt 0.5851 0.0000
vt 0.0000 -0.6117
vt 0.5851 -0.6117
vn -0.9449 -0.3082 -0.1107
vn 0.9649 0.2088 -0.1591
vn -0.8054 -0.3403 -0.4852
vn 0.5327 -0.1062 0.8396
vn 0.2121 0.1966 -0.9573
vn -0.1693 0.0221 -0.9853
vn -0.8474 -0.1692 0.5033
vn 0.1622 0.0079 0.9867
vn 0.9208 0.2043 -0.3322
vn 0.7986 0.5306 -0.2840
usemtl 07_-_Default.001
s 1
f 1/1/1 2/2/1 4/3/1 3/4/1
f 5/5/2 7/6/2 8/7/2 6/8/2
f 1/9/3 5/10/3 6/11/3 2/12/3
f 2/13/4 6/14/4 8/15/4 4/16/4
f 10/17/5 11/18/5 12/19/5 9/20/5
f 3/21/6 7/22/6 5/23/6 1/24/6
f 4/25/7 10/17/7 9/20/7 3/26/7
f 4/25/8 8/27/8 11/18/8 10/17/8
f 8/27/9 7/28/9 12/19/9 11/18/9
f 7/28/10 3/26/10 9/20/10 12/19/10
o Box009.001_Untitled.011
v 0.035239 -0.209791 0.094709
v 0.050535 -0.274550 0.100263
v 0.033224 -0.107950 0.111639
v 0.057839 -0.217210 0.119620
v 0.046938 -0.207889 0.084662
v 0.062228 -0.272699 0.090199
v 0.049809 -0.148535 0.099239
v 0.071110 -0.215695 0.111330
v 0.042810 -0.101534 0.123985
v 0.053749 -0.055730 0.133846
v 0.068588 -0.054549 0.127318
v 0.060963 -0.142452 0.113347
vt 1.0000 0.0000
vt 0.4149 0.0000
vt 0.4149 1.2900
vt 1.0000 1.2900
vt 0.0000 0.0000
vt 0.0000 1.2900
vt 0.5851 1.2900
vt 0.5851 0.0000
vt 0.0000 0.0000
vt 0.0000 -0.6117
vt 0.5851 -0.6117
vt 0.5851 0.0000
vt 0.0000 0.0000
vt 0.0000 -0.6117
vt 1.2900 -0.6117
vt 1.2900 0.0000
vt 0.0000 0.0000
vt 0.0000 -0.6117
vt 0.5851 -0.6117
vt 0.5851 0.0000
vt 0.0000 0.0000
vt 0.0000 -0.6117
vt 1.2900 -0.6117
vt 1.2900 0.0000
vt 0.0000 0.0000
vt 0.5851 0.0000
vt 0.0000 -0.6117
vt 0.5851 -0.6117
vn -0.7529 -0.1224 0.6466
vn 0.7529 0.1224 -0.6466
vn -0.6177 -0.2107 -0.7577
vn 0.5860 -0.3429 0.7342
vn -0.2480 0.2033 -0.9472
vn -0.4561 0.1730 -0.8729
vn -0.5919 -0.1070 0.7988
vn 0.4705 -0.0727 0.8794
vn 0.6218 0.1075 -0.7757
vn 0.5921 0.4427 -0.6734
usemtl 07_-_Default.001
s 1
f 13/29/11 14/30/11 16/31/11 15/32/11
f 17/33/12 19/34/12 20/35/12 18/36/12
f 13/37/13 17/38/13 18/39/13 14/40/13
f 14/41/14 18/42/14 20/43/14 16/44/14
f 22/45/15 23/46/15 24/47/15 21/48/15
f 15/49/16 19/50/16 17/51/16 13/52/16
f 16/53/17 22/45/17 21/48/17 15/54/17
f 16/53/18 20/55/18 23/46/18 22/45/18
f 20/55/19 19/56/19 24/47/19 23/46/19
f 19/56/20 15/54/20 21/48/20 24/47/20
o Box008.001_Untitled.014
v 0.001141 -0.416180 -0.038821
v 0.024385 -0.478497 -0.032926
v -0.001921 -0.313426 -0.048540
v 0.035482 -0.418825 -0.038570
v 0.001141 -0.417643 -0.054290
v 0.024374 -0.480013 -0.048390
v 0.005503 -0.356884 -0.060037
v 0.037871 -0.420341 -0.054035
v 0.012623 -0.304866 -0.049371
v 0.014178 -0.258235 -0.053782
v 0.018949 -0.259752 -0.069246
v 0.022429 -0.348324 -0.060867
vt 1.0000 0.0000
vt 0.4149 0.0000
vt 0.4149 1.2900
vt 1.0000 1.2900
vt 0.0000 0.0000
vt 0.0000 1.2900
vt 0.5851 1.2900
vt 0.5851 0.0000
vt 0.0000 0.0000
vt 0.0000 -0.6117
vt 0.5851 -0.6117
vt 0.5851 0.0000
vt 0.0000 0.0000
vt 0.0000 -0.6117
vt 1.2900 -0.6117
vt 1.2900 0.0000
vt 0.0000 0.0000
vt 0.0000 -0.6117
vt 0.5851 -0.6117
vt 0.5851 0.0000
vt 0.0000 0.0000
vt 0.0000 -0.6117
vt 1.2900 -0.6117
vt 1.2900 0.0000
vt 0.0000 0.0000
vt 0.5851 0.0000
vt 0.0000 -0.6117
vt 0.5851 -0.6117
vn 0.0000 0.0942 0.9956
vn 0.0003 0.0944 0.9955
vn -0.0000 -0.0942 -0.9956
vn 0.0002 -0.0943 -0.9955
vn -0.9375 -0.3463 0.0337
vn 0.9768 -0.1924 0.0940
vn -0.9119 -0.0515 -0.4071
vn -0.9702 -0.0152 -0.2418
vn 0.0004 0.0944 0.9955
vn 0.9674 0.1411 0.2101
vn 0.0002 -0.0944 -0.9955
vn -0.1705 0.2203 -0.9604
usemtl 07_-_Default.001
s 1
f 25/57/21 26/58/21 28/59/21 27/60/22
f 29/61/23 31/62/24 32/63/23 30/64/23
f 25/65/25 29/66/25 30/67/25 26/68/25
f 26/69/26 30/70/26 32/71/26 28/72/26
f 34/73/27 35/74/27 36/75/27 33/76/27
f 27/77/28 31/78/28 29/79/28 25/80/28
f 28/81/21 34/73/29 33/76/29 27/82/22
f 28/81/30 32/83/30 35/74/30 34/73/30
f 32/83/23 31/84/24 36/75/31 35/74/31
f 31/84/32 27/82/32 33/76/32 36/75/32
o Box007.001_Untitled.016
v 0.180799 -0.553493 0.019225
v 0.073307 -0.659537 0.032290
v 0.179532 -0.538439 0.013160
v 0.145996 -0.505717 0.000926
v 0.182539 -0.553335 0.047956
v 0.074044 -0.659470 0.044468
v 0.181010 -0.538305 0.037574
v 0.149753 -0.505375 0.062964
v 0.167818 -0.433963 -0.000791
v 0.121366 -0.426419 0.001981
v 0.124180 -0.426163 0.048437
v 0.171023 -0.433671 0.052134
v 0.127172 -0.545701 0.009706
v 0.130072 -0.545437 0.057587
v 0.124068 -0.428991 0.048463
v 0.121255 -0.429247 0.002003
v 0.121395 -0.320805 0.001398
v 0.102786 -0.334007 0.002598
v 0.104777 -0.333826 0.035482
v 0.123916 -0.320576 0.043030
v 0.117269 -0.260164 0.024424
v 0.102982 -0.315731 0.015744
v 0.104640 -0.315580 0.043128
v 0.117495 -0.260144 0.028162
vt 0.0000 0.0000
vt 0.0000 -2.4470
vt 0.0000 -2.4470
vt 0.0000 0.0000
vt 0.0000 -2.4470
vt 0.0000 -2.4470
vt 0.0000 0.0000
vt 0.0000 0.0000
vt 0.0000 0.0000
vt 0.0000 -2.4470
vt 1.4895 -2.4470
vt 1.4895 0.0000
vt 1.4895 0.0000
vt 0.0000 0.0000
vt 0.0000 -2.4470
vt 1.4895 -2.4470
vt 1.4895 0.0000
vt 1.4895 0.0000
vt 1.4895 -2.4470
vt 1.4895 -2.4470
vt 1.0000 0.0000
vt -0.4895 0.0000
vt -0.4895 3.7502
vt 1.0000 3.7502
vt 0.0000 0.0000
vt 0.0000 3.7502
vt 1.4895 3.7502
vt 1.4895 0.0000
vt 0.0000 0.0000
vt 0.0000 -2.4470
vt 1.4895 -2.4470
vt 1.4895 0.0000
vt 0.0000 0.0000
vt 0.0000 -2.4470
vt 3.7502 -2.4470
vt 3.7502 0.0000
vt 0.0000 0.0000
vt 0.0000 -2.4470
vt 3.7502 -2.4470
vt 3.7502 0.0000
vn -0.9971 -0.0467 0.0606
vn -0.3664 0.0532 0.9289
vn -0.2749 -0.0755 -0.9585
vn -0.9690 0.2402 0.0574
vn -0.5202 0.3343 -0.7859
vn 0.0294 0.0938 0.9952
vn 0.9940 0.0907 -0.0607
vn 0.0916 -0.0517 -0.9945
vn 0.2944 0.0568 0.9540
vn 0.9928 0.1032 -0.0607
vn 0.8991 -0.4347 -0.0521
vn -0.9974 0.0399 0.0602
vn -0.0605 -0.0055 -0.9982
vn -0.9785 -0.1971 0.0603
vn -0.1720 0.0499 0.9838
vn 0.9232 0.3799 -0.0580
vn -0.9976 -0.0329 0.0606
vn 0.1337 -0.2680 -0.9541
vn 0.2273 -0.1459 0.9628
vn 0.6994 -0.7137 -0.0384
vn -0.8988 0.4353 0.0520
vn 0.9964 0.0594 -0.0607
usemtl 02_-_Default.001
s 1
f 49/85/33 50/86/33 51/87/33 52/88/33
f 44/89/34 47/90/34 51/87/34 50/86/34
f 46/91/35 40/92/35 49/85/35 52/88/35
usemtl 07_-_Default.001
f 58/93/36 59/94/36 60/95/36 57/96/36
f 53/97/37 54/98/37 58/93/37 57/96/37
f 55/99/38 56/100/38 60/95/38 59/94/38
f 56/100/39 53/97/39 57/96/39 60/95/39
usemtl 05_-_Default.001
f 39/101/40 40/92/40 46/91/40 45/102/40
f 44/89/41 43/103/41 48/104/41 47/90/41
f 43/103/42 39/101/42 45/102/42 48/104/42
f 40/92/43 44/89/43 50/86/43 49/85/43
f 47/90/44 46/91/44 52/88/44 51/87/44
f 45/102/45 46/91/45 54/98/45 53/97/45
f 46/91/46 47/90/46 55/99/46 54/98/46
f 47/90/47 48/104/47 56/100/47 55/99/47
f 48/104/48 45/102/48 53/97/48 56/100/48
f 54/98/49 55/99/49 59/94/49 58/93/49
usemtl 03_-_Default.001
f 37/105/50 38/106/50 40/107/50 39/108/50
f 41/109/51 43/110/51 44/111/51 42/112/51
f 37/113/52 41/114/52 42/115/52 38/116/52
f 38/117/53 42/118/53 44/119/53 40/120/53
f 39/121/54 43/122/54 41/123/54 37/124/54
o Box006.001_Untitled.013
v 0.144576 -0.490733 0.136884
v 0.066775 -0.563719 0.106573
v 0.130424 -0.425339 0.128408
v 0.087009 -0.505771 0.099858
v 0.136122 -0.493549 0.160842
v 0.063027 -0.564967 0.117196
v 0.112985 -0.431148 0.177829
v 0.078962 -0.508452 0.122664
v 0.078057 -0.601480 0.105041
v 0.109609 -0.579623 0.116591
v 0.107858 -0.580206 0.121553
v 0.075501 -0.602331 0.112287
v 0.127275 -0.379443 0.144473
v 0.124611 -0.399603 0.114059
v 0.106894 -0.405505 0.164266
v 0.119764 -0.334360 0.184200
vt 1.0000 0.0000
vt -1.9257 0.0000
vt -1.9257 4.2024
vt 1.0000 4.2024
vt 0.0000 0.0000
vt 0.0000 4.2024
vt 2.9257 4.2024
vt 2.9257 0.0000
vt 0.0000 0.0000
vt 0.0000 -5.9578
vt 4.2024 -5.9578
vt 4.2024 0.0000
vt 0.0000 0.0000
vt 0.0000 -5.9578
vt 4.2024 -5.9578
vt 4.2024 0.0000
vt 0.0000 0.0000
vt 0.0000 -5.9578
vt 2.9257 -5.9578
vt 2.9257 0.0000
vt 2.9257 0.0000
vt 0.0000 0.0000
vt 0.0000 -5.9578
vt 2.9257 -5.9578
vt 0.0000 -5.9578
vt 2.9257 -5.9578
vt 2.9257 0.0000
vt 0.0000 0.0000
vt 2.9257 0.0000
vt 0.0000 0.0000
vt 0.0000 -5.9578
vt 2.9257 -5.9578
vn 0.5600 -0.1284 -0.8185
vn -0.5108 -0.1893 0.8386
vn -0.9138 0.2856 -0.2889
vn 0.9059 0.2412 0.3480
vn 0.5435 -0.8341 0.0937
vn 0.2665 0.1151 -0.9569
vn 0.8763 -0.4045 0.2617
vn -0.1949 -0.3071 0.9315
vn -0.9019 -0.2553 -0.3483
vn -0.8449 0.3613 -0.3944
vn 0.8546 -0.0919 -0.5111
vn -0.8944 0.3534 -0.2741
vn -0.8811 0.0399 0.4712
vn 0.9520 -0.0710 0.2977
usemtl 02_-_Default.001
s 1
f 61/125/55 62/126/55 64/127/55 63/128/55
f 65/129/56 67/130/56 68/131/56 66/132/56
f 62/133/57 66/134/57 68/135/57 64/136/57
f 63/137/58 67/138/58 65/139/58 61/140/58
usemtl 03_-_Default.001
f 70/141/59 71/142/59 72/143/59 69/144/59
f 62/145/60 61/146/60 70/141/60 69/144/60
f 61/146/61 65/147/61 71/142/61 70/141/61
f 66/148/62 72/143/62 71/142/62 65/147/62
f 66/148/63 62/145/63 69/144/63 72/143/63
usemtl 05_-_Default.001
f 75/149/64 76/150/64 73/151/64 74/152/64
f 63/153/65 64/154/65 74/152/65 73/151/65
f 64/154/66 68/155/66 75/149/66 74/152/66
f 67/156/67 76/150/67 75/149/67 68/155/67
f 67/156/68 63/153/68 73/151/68 76/150/68
o Box005.001_Untitled.017
v 0.127461 -0.530774 -0.072626
v 0.047385 -0.592668 -0.027286
v 0.123215 -0.463971 -0.089149
v 0.035226 -0.531008 -0.032687
v 0.138244 -0.529974 -0.049465
v 0.052166 -0.592313 -0.017016
v 0.145460 -0.462320 -0.041371
v 0.045492 -0.530246 -0.010639
v 0.052368 -0.631736 -0.029367
v 0.083926 -0.614311 -0.046890
v 0.086160 -0.614145 -0.042092
v 0.055629 -0.631494 -0.022362
v 0.126218 -0.417931 -0.075314
v 0.101856 -0.440098 -0.091242
v 0.124455 -0.438421 -0.042704
v 0.145377 -0.367436 -0.044611
vt 1.0000 0.0000
vt -1.9257 0.0000
vt -1.9257 4.2024
vt 1.0000 4.2024
vt 0.0000 0.0000
vt 0.0000 4.2024
vt 2.9257 4.2024
vt 2.9257 0.0000
vt 0.0000 0.0000
vt 0.0000 -5.9578
vt 4.2024 -5.9578
vt 4.2024 0.0000
vt 0.0000 0.0000
vt 0.0000 -5.9578
vt 4.2024 -5.9578
vt 4.2024 0.0000
vt 0.0000 0.0000
vt 0.0000 -5.9578
vt 2.9257 -5.9578
vt 2.9257 0.0000
vt 2.9257 0.0000
vt 0.0000 0.0000
vt 0.0000 -5.9578
vt 2.9257 -5.9578
vt 0.0000 -5.9578
vt 2.9257 -5.9578
vt 2.9257 0.0000
vt 0.0000 0.0000
vt 2.9257 0.0000
vt 0.0000 0.0000
vt 0.0000 -5.9578
vt 2.9257 -5.9578
vn -0.3887 -0.2030 -0.8987
vn 0.3843 -0.1039 0.9173
vn -0.8960 -0.1383 0.4220
vn -0.8958 -0.1397 0.4219
vn 0.9062 -0.0464 -0.4203
vn 0.4081 -0.8990 -0.1590
vn -0.4809 -0.0179 -0.8766
vn 0.7836 -0.5153 -0.3470
vn 0.5038 -0.1847 0.8438
vn -0.8962 -0.1368 0.4220
vn -0.8921 0.4028 0.2049
vn -0.1633 -0.2302 -0.9593
vn -0.6732 0.6802 0.2900
vn 0.1009 0.1436 0.9845
vn 0.8795 0.0175 -0.4756
usemtl 02_-_Default.001
s 1
f 77/157/69 78/158/69 80/159/69 79/160/69
f 81/161/70 83/162/70 84/163/70 82/164/70
f 78/165/71 82/166/71 84/167/72 80/168/72
f 79/169/73 83/170/73 81/171/73 77/172/73
usemtl 03_-_Default.001
f 86/173/74 87/174/74 88/175/74 85/176/74
f 78/177/75 77/178/75 86/173/75 85/176/75
f 77/178/76 81/179/76 87/174/76 86/173/76
f 82/180/77 88/175/77 87/174/77 81/179/77
f 82/180/71 78/177/71 85/176/78 88/175/78
usemtl 05_-_Default.001
f 91/181/79 92/182/79 89/183/79 90/184/79
f 79/185/80 80/186/80 90/184/80 89/183/80
f 80/186/81 84/187/81 91/181/81 90/184/81
f 83/188/82 92/182/82 91/181/82 84/187/82
f 83/188/83 79/185/83 89/183/83 92/182/83
o Box004.001_Untitled.015
v -0.134039 -0.555399 -0.024293
v -0.022359 -0.640179 0.033243
v -0.138754 -0.540456 -0.019878
v -0.123364 -0.502427 0.005852
v -0.119495 -0.555120 -0.049131
v -0.016194 -0.640061 0.022715
v -0.126396 -0.540219 -0.040984
v -0.091960 -0.501825 -0.047780
v -0.153436 -0.435799 -0.011009
v -0.115190 -0.419987 0.011563
v -0.091673 -0.419536 -0.028598
v -0.126645 -0.435286 -0.056762
v -0.096819 -0.538237 0.012412
v -0.072581 -0.537773 -0.028981
v -0.091122 -0.422297 -0.028310
v -0.114640 -0.422748 0.011854
v -0.132191 -0.316120 0.002773
v -0.114261 -0.325742 0.013164
v -0.097615 -0.325423 -0.015265
v -0.111117 -0.315716 -0.033218
v -0.125574 -0.255383 -0.019404
v -0.109987 -0.307601 0.000533
v -0.096125 -0.307335 -0.023140
v -0.123682 -0.255347 -0.022634
vt 0.0000 0.0000
vt 0.0000 -2.4470
vt 0.0000 -2.4470
vt 0.0000 0.0000
vt 0.0000 -2.4470
vt 0.0000 -2.4470
vt 0.0000 0.0000
vt 0.0000 0.0000
vt 0.0000 0.0000
vt 0.0000 -2.4470
vt 1.4895 -2.4470
vt 1.4895 0.0000
vt 1.4895 0.0000
vt 0.0000 0.0000
vt 0.0000 -2.4470
vt 1.4895 -2.4470
vt 1.4895 0.0000
vt 1.4895 0.0000
vt 1.4895 -2.4470
vt 1.4895 -2.4470
vt 1.0000 0.0000
vt -0.4895 0.0000
vt -0.4895 3.7502
vt 1.0000 3.7502
vt 0.0000 0.0000
vt 0.0000 3.7502
vt 1.4895 3.7502
vt 1.4895 0.0000
vt 0.0000 0.0000
vt 0.0000 -2.4470
vt 1.4895 -2.4470
vt 1.4895 0.0000
vt 0.0000 0.0000
vt 0.0000 -2.4470
vt 3.7502 -2.4470
vt 3.7502 0.0000
vt 0.0000 0.0000
vt 0.0000 -2.4470
vt 3.7502 -2.4470
vt 3.7502 0.0000
vn 0.8545 0.1343 0.5018
vn 0.8074 0.1322 -0.5749
vn -0.2972 -0.0393 0.9540
vn 0.7845 0.4113 0.4640
vn -0.0657 0.4104 0.9095
vn 0.5150 0.1021 -0.8511
vn -0.8590 -0.0904 -0.5040
vn -0.6200 -0.0824 0.7803
vn 0.2818 0.0174 -0.9593
vn -0.8599 -0.0779 -0.5044
vn -0.6939 -0.5900 -0.4129
vn 0.8408 0.2195 0.4948
vn -0.5053 -0.0097 0.8629
vn 0.8629 -0.0171 0.5051
vn 0.6799 0.0950 -0.7271
vn -0.8453 0.2068 -0.4926
vn 0.8527 0.1479 0.5010
vn -0.5978 -0.3021 0.7426
vn 0.3734 -0.1698 -0.9120
vn -0.4794 -0.8283 -0.2900
vn 0.6935 0.5906 0.4127
vn -0.8559 -0.1216 -0.5026
usemtl 02_-_Default.001
s 1
f 105/189/84 106/190/84 107/191/84 108/192/84
f 100/193/85 103/194/85 107/191/85 106/190/85
f 102/195/86 96/196/86 105/189/86 108/192/86
usemtl 07_-_Default.001
f 114/197/87 115/198/87 116/199/87 113/200/87
f 109/201/88 110/202/88 114/197/88 113/200/88
f 111/203/89 112/204/89 116/199/89 115/198/89
f 112/204/90 109/201/90 113/200/90 116/199/90
usemtl 05_-_Default.001
f 95/205/91 96/196/91 102/195/91 101/206/91
f 100/193/92 99/207/92 104/208/92 103/194/92
f 99/207/93 95/205/93 101/206/93 104/208/93
f 96/196/94 100/193/94 106/190/94 105/189/94
f 103/194/95 102/195/95 108/192/95 107/191/95
f 101/206/96 102/195/96 110/202/96 109/201/96
f 102/195/97 103/194/97 111/203/97 110/202/97
f 103/194/98 104/208/98 112/204/98 111/203/98
f 104/208/99 101/206/99 109/201/99 112/204/99
f 110/202/100 111/203/100 115/198/100 114/197/100
usemtl 03_-_Default.001
f 93/209/101 94/210/101 96/211/101 95/212/101
f 97/213/102 99/214/102 100/215/102 98/216/102
f 93/217/103 97/218/103 98/219/103 94/220/103
f 94/221/104 98/222/104 100/223/104 96/224/104
f 95/225/105 99/226/105 97/227/105 93/228/105
o Box003.001_Untitled.009
v -0.018245 -0.508748 0.024381
v 0.110185 -0.557677 0.032193
v -0.010292 -0.394904 0.023034
v 0.092659 -0.474574 0.029674
v -0.018245 -0.508748 0.060479
v 0.077723 -0.557677 0.047661
v -0.010292 -0.394904 0.075966
v 0.060197 -0.474574 0.061539
v 0.013051 -0.551022 0.022575
v 0.031383 -0.658825 0.023512
v 0.031383 -0.658825 0.026143
v 0.013051 -0.551022 0.052482
v 0.085923 -0.351432 0.041522
v -0.024675 -0.243098 0.024628
v -0.024675 -0.243099 0.076762
v 0.021504 -0.351432 0.076762
v 0.068959 -0.322097 0.035743
v 0.018674 -0.111471 0.068496
v 0.018674 -0.111472 0.074414
v 0.036498 -0.322097 0.083957
vt 0.0000 0.0000
vt 3.7651 0.0000
vt 3.7651 23.7845
vt 0.0000 23.7845
vt 3.7651 0.0000
vt 0.0000 0.0000
vt 3.7651 23.7845
vt 0.0000 23.7845
vt 0.0000 0.0000
vt 3.7651 0.0000
vt 3.7651 23.7845
vt 0.0000 23.7845
vt 3.7651 0.0000
vt 0.0000 0.0000
vt 3.7651 23.7845
vt 0.0000 23.7845
vt 0.0000 0.0000
vt 3.7651 0.0000
vt 3.7651 23.7845
vt 0.0000 23.7845
vt 1.0000 0.0000
vt 1.0000 5.9232
vt -2.7651 5.9232
vt -2.7651 0.0000
vt 0.0000 0.0000
vt 3.7651 0.0000
vt 3.7651 5.9232
vt 0.0000 5.9232
vt 0.0000 0.0000
vt 5.9232 0.0000
vt 5.9232 23.7845
vt 0.0000 23.7845
vt 0.0000 0.0000
vt 5.9232 0.0000
vt 5.9232 23.7845
vt 0.0000 23.7845
vn 0.8524 0.1097 0.5112
vn 0.2649 0.1807 -0.9472
vn -0.9498 0.3128 0.0000
vn -0.1060 0.0085 0.9943
vn -0.9858 -0.1676 -0.0000
vn 0.1011 0.0392 -0.9941
vn 0.4471 -0.3963 0.8019
vn 0.0516 -0.2065 0.9771
vn -0.8037 -0.5950 -0.0000
vn 0.1619 0.0606 -0.9849
vn -0.9955 -0.0943 -0.0000
vn 0.0431 -0.0498 0.9978
vn 0.5693 0.0147 0.8220
vn 0.6526 0.0036 0.7577
vn 0.0529 -0.0170 -0.9985
vn 0.0498 -0.1449 0.9882
vn 0.5877 0.0689 0.8061
vn -0.9976 0.0697 0.0000
usemtl 07_-_Default.001
s 1
f 133/229/106 134/230/106 135/231/106 136/232/106
f 130/233/107 134/230/107 133/229/107 129/234/107
f 130/233/108 131/235/108 135/231/108 134/230/108
f 131/235/109 132/236/109 136/232/109 135/231/109
usemtl 03_-_Default.001
f 125/237/110 126/238/110 127/239/110 128/240/110
f 118/241/111 126/238/111 125/237/111 117/242/111
f 118/241/112 122/243/112 127/239/112 126/238/112
f 122/243/113 121/244/113 128/240/113 127/239/113
f 121/244/114 117/242/114 125/237/114 128/240/114
usemtl 05_-_Default.001
f 120/245/115 119/246/115 130/233/115 129/234/115
f 119/246/116 123/247/116 131/235/116 130/233/116
f 123/247/117 124/248/117 132/236/117 131/235/117
f 124/248/118 120/245/118 129/234/118 132/236/118
f 132/236/119 129/234/119 133/229/119 136/232/119
usemtl 02_-_Default.001
f 117/249/120 119/250/120 120/251/120 118/252/120
f 121/253/121 122/254/121 124/255/121 123/256/121
f 118/257/122 120/258/122 124/259/122 122/260/122
f 119/261/123 117/262/123 121/263/123 123/264/123
o Box001.001_Untitled.010
v -0.082969 -0.565550 0.123024
v 0.002873 -0.629733 0.094555
v -0.080093 -0.507026 0.159361
v 0.017093 -0.575028 0.122556
v -0.082969 -0.557001 0.098934
v 0.002873 -0.625942 0.083874
v -0.080093 -0.489391 0.109669
v 0.017093 -0.566890 0.099625
v -0.005977 -0.666278 0.082653
v -0.040283 -0.647510 0.091456
v -0.040283 -0.645739 0.086466
v -0.005977 -0.663693 0.075368
v -0.072932 -0.459400 0.160087
v -0.059533 -0.489256 0.176448
v -0.059533 -0.471340 0.125966
v -0.072932 -0.400174 0.141331
vt 1.0000 0.0000
vt -1.9257 0.0000
vt -1.9257 4.2024
vt 1.0000 4.2024
vt 0.0000 0.0000
vt 0.0000 4.2024
vt 2.9257 4.2024
vt 2.9257 0.0000
vt 0.0000 0.0000
vt 0.0000 -5.9578
vt 4.2024 -5.9578
vt 4.2024 0.0000
vt 0.0000 0.0000
vt 0.0000 -5.9578
vt 4.2024 -5.9578
vt 4.2024 0.0000
vt 0.0000 0.0000
vt 0.0000 -5.9578
vt 2.9257 -5.9578
vt 2.9257 0.0000
vt 2.9257 0.0000
vt 0.0000 0.0000
vt 0.0000 -5.9578
vt 2.9257 -5.9578
vt 0.0000 -5.9578
vt 2.9257 -5.9578
vt 2.9257 0.0000
vt 0.0000 0.0000
vt 2.9257 0.0000
vt 0.0000 0.0000
vt 0.0000 -5.9578
vt 2.9257 -5.9578
vn -0.0422 -0.4888 0.8714
vn 0.0266 0.2012 -0.9792
vn 0.9741 -0.2129 -0.0756
vn 0.9741 -0.2130 -0.0756
vn 0.9738 -0.2142 -0.0760
vn -0.9991 0.0402 0.0143
vn -0.5154 -0.8076 -0.2866
vn 0.0669 -0.3267 0.9428
vn -0.8993 -0.4121 -0.1462
vn -0.1193 0.1313 -0.9841
vn 0.9745 -0.2115 -0.0751
vn 0.9280 0.2489 0.2773
vn -0.2737 -0.4831 0.8317
vn 0.7904 0.5773 0.2049
vn 0.3330 0.3941 -0.8566
vn -0.9924 0.0821 0.0921
usemtl 02_-_Default.001
s 1
f 137/265/124 138/266/124 140/267/124 139/268/124
f 141/269/125 143/270/125 144/271/125 142/272/125
f 138/273/126 142/274/127 144/275/128 140/276/128
f 139/277/129 143/278/129 141/279/129 137/280/129
usemtl 03_-_Default.001
f 146/281/130 147/282/130 148/283/130 145/284/130
f 138/285/131 137/286/131 146/281/131 145/284/131
f 137/286/132 141/287/132 147/282/132 146/281/132
f 142/288/133 148/283/133 147/282/133 141/287/133
f 142/288/127 138/285/126 145/284/134 148/283/134
usemtl 05_-_Default.001
f 151/289/135 152/290/135 149/291/135 150/292/135
f 139/293/136 140/294/136 150/292/136 149/291/136
f 140/294/137 144/295/137 151/289/137 150/292/137
f 143/296/138 152/290/138 151/289/138 144/295/138
f 143/296/139 139/293/139 149/291/139 152/290/139
